<?xml version="1.0" encoding="UTF-8"?>
<svg xmlns="http://www.w3.org/2000/svg" version="1.1" viewBox="0 0 512 156">
  <defs>
    <style>
      .cls-1 {
        fill: #fff;
      }
    </style>
  </defs>
  <!-- Generator: Adobe Illustrator 28.6.0, SVG Export Plug-In . SVG Version: 1.2.0 Build 709)  -->
  <g>
    <g id="Layer_1">
      <path class="cls-1" d="M86.1,148.4c-2.3,0-4.4-.8-6.1-2.3-6.4-5.6-12.6-10.8-18-15.5h0c-15.9-13.6-29.7-25.3-39.3-36.9-10.7-12.9-15.7-25.2-15.7-38.6s4.5-25,12.6-33.8c8.2-8.9,19.4-13.8,31.7-13.8s17.5,2.9,24.9,8.6c3.7,2.9,7.1,6.4,10.1,10.5,3-4.1,6.3-7.6,10.1-10.5,7.4-5.7,15.7-8.6,24.9-8.6s23.5,4.9,31.7,13.8c8.1,8.8,12.6,20.8,12.6,33.8s-5,25.6-15.7,38.6c-9.6,11.6-23.3,23.3-39.3,36.9-5.4,4.6-11.6,9.9-18,15.5-1.7,1.5-3.9,2.3-6.1,2.3ZM51.2,16.9c-9.6,0-18.4,3.8-24.8,10.8-6.5,7.1-10.1,16.8-10.1,27.5s4.2,21.3,13.6,32.6c9.1,10.9,22.6,22.4,38.2,35.7h0c5.5,4.7,11.6,9.9,18.1,15.6,6.5-5.6,12.7-10.9,18.1-15.6,15.6-13.3,29.1-24.8,38.2-35.7,9.4-11.3,13.6-21.4,13.6-32.6s-3.6-20.4-10.1-27.5c-6.4-7-15.2-10.8-24.8-10.8s-13.5,2.2-19.2,6.6c-5.1,3.9-8.6,8.9-10.7,12.4-1.1,1.8-2.9,2.9-5,2.9s-4-1.1-5-2.9c-2.1-3.5-5.6-8.4-10.7-12.4-5.7-4.4-12.2-6.6-19.2-6.6Z"/>
      <g>
        <path class="cls-1" d="M292.4,57.2c-2.9-6.6-7.2-11.8-13.1-15.5-5.9-3.8-12.8-5.7-20.7-5.7s-14.1,1.7-20,5.2c-5.9,3.4-10.6,8.3-14,14.7-3.4,6.3-5.2,13.7-5.2,22.1s1.7,15.8,5.2,22.2c3.4,6.4,8.1,11.3,14,14.7,5.9,3.4,12.6,5.2,20,5.2s13.2-1.5,18.8-4.5c5.6-3,10.1-7.3,13.5-12.9,3.4-5.6,5.3-12.1,5.8-19.5h-42.1v-8.2h52.7v7.3c-.5,8.8-2.9,16.7-7.2,23.8-4.3,7.1-10,12.7-17.3,16.8-7.2,4.1-15.3,6.2-24.3,6.2s-17.7-2.2-25.2-6.5c-7.5-4.3-13.5-10.4-17.8-18.2-4.3-7.8-6.5-16.6-6.5-26.4s2.2-18.6,6.5-26.4c4.3-7.8,10.3-13.8,17.8-18.2,7.5-4.3,15.9-6.5,25.2-6.5s20,2.7,28.1,8c8,5.3,13.8,12.8,17.5,22.3h-11.7Z"/>
        <path class="cls-1" d="M335.6,28v100.1h-10V28h10Z"/>
        <path class="cls-1" d="M437.7,28l-37.9,100.1h-11.5l-37.9-100.1h10.9l32.8,89.2,33.1-89.2h10.6Z"/>
        <path class="cls-1" d="M462.8,36.2v37.4h37.9v8.3h-37.9v37.9h42.2v8.3h-52.3V27.9h52.3v8.3h-42.2Z"/>
      </g>
    </g>
  </g>
</svg>